<?xml version="1.0" encoding="UTF-8" standalone="no"?>
<svg
   height="550"
   width="571.29999"
   version="1.1"
   id="svg1079"
   sodipodi:docname="codewars.svg"
   inkscape:version="1.2.1 (9c6d41e410, 2022-07-14)"
   xmlns:inkscape="http://www.inkscape.org/namespaces/inkscape"
   xmlns:sodipodi="http://sodipodi.sourceforge.net/DTD/sodipodi-0.dtd"
   xmlns="http://www.w3.org/2000/svg"
   xmlns:svg="http://www.w3.org/2000/svg">
  <defs
     id="defs1083" />
  <sodipodi:namedview
     id="namedview1081"
     pagecolor="#ffffff"
     bordercolor="#000000"
     borderopacity="0.25"
     inkscape:showpageshadow="2"
     inkscape:pageopacity="0.0"
     inkscape:pagecheckerboard="0"
     inkscape:deskcolor="#d1d1d1"
     showgrid="false"
     inkscape:zoom="1.0694907"
     inkscape:cx="221.60081"
     inkscape:cy="324.92102"
     inkscape:window-width="1920"
     inkscape:window-height="1001"
     inkscape:window-x="-9"
     inkscape:window-y="-9"
     inkscape:window-maximized="1"
     inkscape:current-layer="svg1079"
     showguides="true"
     inkscape:lockguides="true">
    <sodipodi:guide
       position="571.29999,135.73584"
       orientation="0,-1"
       id="guide903"
       inkscape:locked="true" />
    <sodipodi:guide
       position="571.29999,691.90002"
       orientation="0,-1"
       id="guide905"
       inkscape:locked="true" />
    <sodipodi:guide
       position="571.29999,446.87047"
       orientation="1,0"
       id="guide907"
       inkscape:locked="true" />
    <sodipodi:guide
       position="0,413.81793"
       orientation="1,0"
       id="guide909"
       inkscape:locked="true" />
    <sodipodi:guide
       position="-136.51358,0.91689715"
       orientation="0,-1"
       id="guide5367"
       inkscape:locked="true" />
  </sodipodi:namedview>
  <ellipse
     style="fill:#01ac2a;fill-opacity:1;stroke-width:0.994443"
     id="path898"
     cx="285.64999"
     cy="275"
     rx="285.64999"
     ry="275" />
  <path
     fill="#b1361e"
     d="m 275.6,471.2 a 17.8,17.8 0 0 1 25.7,6.3 20.6,20.6 0 0 1 28.4,-1.2 22.5,22.5 0 0 1 30.8,-14.6 25,25 0 0 1 24.2,-24.5 30.4,30.4 0 0 1 13.8,-40.3 25.3,25.3 0 0 1 -1.6,-32.8 23.3,23.3 0 0 1 -10.7,-28.8 21,21 0 0 1 -18.5,-24.6 h -3.2 c -8,0 -14.6,-5 -15.8,-12.6 v -0.4 a 15.4,15.4 0 0 1 -23.7,-9 9.5,9.5 0 0 1 -8.7,0 29.6,29.6 0 0 1 -8,13.7 9.5,9.5 0 0 1 4,13.9 15.4,15.4 0 0 1 7.5,25.3 17,17 0 0 1 1.2,30 c 1.6,2 3.2,3.6 4,6.3 a 21,21 0 0 1 -14.3,30 23.3,23.3 0 0 1 -22.5,33.7 25.3,25.3 0 0 1 -14.6,24.9 l 2,5.1"
     id="path1069" />
  <path
     fill="#b1361e"
     d="m 271.2,86.3 a 20.6,20.6 0 0 1 -28.4,1.2 22.5,22.5 0 0 1 -30.5,14.6 25.3,25.3 0 0 1 -24,24.5 30.4,30.4 0 0 1 -13.9,40.3 25.3,25.3 0 0 1 1.6,32.8 23.3,23.3 0 0 1 10.7,28.8 21,21 0 0 1 18.1,24.5 h 3.2 c 7.9,0 15,5.2 15.8,12.7 a 15.4,15.4 0 0 1 23.7,9.5 9.5,9.5 0 0 1 8.7,-0.8 31.6,31.6 0 0 1 6.7,-14.2 l -2.7,-3.6 c -1.6,-2.8 -0.8,-6.3 0,-9 a 15.4,15.4 0 0 1 -7.2,-25.4 17,17 0 0 1 -0.7,-30.4 21,21 0 0 1 9.4,-35.6 23.3,23.3 0 0 1 23,-34 25.3,25.3 0 0 1 14.6,-24.9 l -2,-5.1 a 15.8,15.8 0 0 1 -10.7,4 c -6.7,0 -11.8,-4.4 -15.4,-10 m 183,185.8 a 30.4,30.4 0 0 1 -11.8,-26.5 25.3,25.3 0 0 1 -28.9,-15.8 23.3,23.3 0 0 1 -29.2,-5.9 21,21 0 0 1 -30.9,3.2 l -1.4,3 a 17,17 0 0 1 -19.4,7.1 c 0,3.2 -1.2,6.4 -2.8,8.7 a 15,15 0 0 1 -17.4,6.4 9.5,9.5 0 0 1 -3.1,7 37,37 0 0 1 7.5,12.7 l 4,-1.2 c 3.5,0 6.6,2 7.8,4.8 a 15.4,15.4 0 0 1 26.1,5.1 15.8,15.8 0 0 1 10.7,-3.1 17,17 0 0 1 16.2,17 21,21 0 0 1 27.7,26.4 23.3,23.3 0 0 1 18.5,35.6 25.3,25.3 0 0 1 12.7,31.6 h 2.7 A 17.8,17.8 0 0 1 461,370 a 20.6,20.6 0 0 1 14.3,-24.9 22.5,22.5 0 0 1 3.1,-34.4 25.3,25.3 0 0 1 -7.9,-33.1 27.7,27.7 0 0 1 -15.8,-5.6"
     id="path1073" />
  <path
     fill="#b1361e"
     d="m 257.8,291.4 a 9.5,9.5 0 0 1 -13.8,-3.2 15.4,15.4 0 0 1 -25.7,-5.1 17,17 0 0 1 -10.7,3.1 17,17 0 0 1 -16.2,-17 21,21 0 0 1 -26.9,-25.6 23.3,23.3 0 0 1 -19.7,-36.4 25.3,25.3 0 0 1 -12.7,-31.6 15.8,15.8 0 0 1 -2.4,0 17.8,17.8 0 0 1 -18.1,18.2 21,21 0 0 1 -14.3,24.9 22.5,22.5 0 0 1 -3.1,34.3 25.3,25.3 0 0 1 7.9,33.2 c 5.5,0 11,2 15.8,5.6 a 30.4,30.4 0 0 1 12.2,26.5 25.3,25.3 0 0 1 28.9,15.7 23.3,23.3 0 0 1 29.6,5.9 21,21 0 0 1 30.5,-3.2 l 1.5,-3.1 a 17,17 0 0 1 19.8,-7.1 c 0,-3.2 0.8,-6.4 2.4,-8.7 4,-6 10.6,-8.7 17.4,-6.4 a 9.5,9.5 0 0 1 5.5,-8.7 32.4,32.4 0 0 1 -8,-11.8"
     id="path1077" />
  <path
     fill="#c9c9c9"
     d="m 37.4,318.9 c -21,0 -28.5,-12.7 -28.5,-35.8 0,-22.6 7.4,-36.6 28.5,-36.6 6.4,0 11,0.7 13.7,1.8 0.4,0 0.5,0.3 0.5,0.8 l -0.5,8 c 0,0.3 -0.3,0.7 -1,0.4 -2.4,-0.9 -7,-1.6 -11.3,-1.6 -13,0 -16.5,7 -16.5,27.3 0,19.2 3.9,25.8 16.5,25.8 3.6,0 8.2,-0.6 11,-1.2 0.4,-0.2 1,-0.3 1.3,0.4 l 0.8,7.6 c 0,0.7 -0.1,0.9 -0.5,1.2 -3.5,1 -8.8,1.7 -14,1.7 m 44,-12.8 c 2,2.2 4.8,3.1 11.9,3.1 7.2,0 10,-1 12,-3.1 3.3,-3.5 5,-13.2 5,-23.9 0,-10.8 -1.7,-19.2 -5,-22.7 -2,-2.3 -4.8,-3.2 -11.8,-3.2 -7.3,0 -10,1 -12.2,3.2 -3.3,3.5 -4.9,12 -4.9,22.7 0,10.6 1.6,20.3 5,23.8 m 33.8,5.9 c -4.6,5 -11.5,7 -22,7 -10.7,0 -17,-2 -21.6,-7 A 47.8,47.8 0 0 1 63.2,282 c 0,-13.2 3.5,-23.4 8.4,-28.8 4.6,-5 11.5,-6.7 21.9,-6.7 10.7,0 17.1,1.8 21.7,6.7 a 45.7,45.7 0 0 1 8.2,28.7 c 0,13 -3.6,24.2 -8.2,29.7 m 69,-52.9 c 0,-0.6 -0.4,-1.1 -1.1,-1.5 -1.9,-0.7 -6.3,-1.2 -10.1,-1.2 -14.8,0 -19.5,3.9 -19.5,25.7 0.1,21.4 2.5,27.3 20,27.3 2.9,0 7.1,0 9.5,-0.8 1.1,-0.5 1.1,-1 1.1,-1.5 z m -44,23 c 0,-24.7 9.6,-35.3 32.5,-35.3 4.7,0 8.8,0.9 10.6,0.9 0.6,0 0.8,-0.5 0.8,-1.2 v -23.2 c 0,-0.8 0.5,-1.2 1.4,-1.2 h 10 c 0.9,0 1.4,0.4 1.4,1.2 v 91.5 c 0,0.7 -0.5,1.2 -1.4,1.4 a 89.7,89.7 0 0 1 -22.2,2.8 c -26.5,0 -33.1,-10.3 -33.1,-37 m 90,-4.1 h 29.7 c 1.2,0 1.6,-0.2 1.6,-4.6 0,-11.7 -3.5,-17 -15.2,-17 -13.6,0 -16.9,8.7 -16.9,20.7 0,0.5 0.1,0.9 0.8,0.9 m 18.8,41 c -26.5,0 -32.8,-16.2 -32.8,-36 0,-20.6 7.7,-36 30.1,-36 22,0 27.1,12.8 27.1,30 v 3.7 c 0,5.3 -1.2,6.4 -3.5,6.4 h -39.7 c -0.7,0 -0.9,0.3 -0.9,1 0,17.2 8.3,21.4 22.4,21.4 6.3,0 13.2,-1.7 17.3,-3.5 h 0.7 c 0.6,0 1,0.3 1.2,0.7 l 0.6,7 v 0.3 c 0,0.5 -0.2,1.2 -0.8,1.4 a 57.9,57.9 0 0 1 -21.6,3.7 m 122,-1.4 h -17.4 c -0.6,0 -0.9,-0.2 -1.1,-0.9 a 2248,2248 0 0 1 -13,-56.9 c -0.2,-0.7 -0.4,-0.9 -1.4,-0.9 -1.1,0 -1.4,0.2 -1.6,1 -3.7,17 -11.1,45.7 -14.3,56.8 -0.3,0.7 -0.7,1 -1.6,1 h -17 c -0.4,0 -0.8,-0.5 -1,-1.1 A 1352.1,1352.1 0 0 1 285,248.9 c 0,-1 0.2,-1.2 0.9,-1.2 h 11.8 c 0.7,0 0.8,0.5 0.9,1.2 a 1216.4,1216.4 0 0 0 12.9,57.1 c 0,0.8 0.6,1 1.5,1 1.2,0 1.6,-0.2 1.7,-1 a 1980.7,1980.7 0 0 0 12.9,-57.1 c 0.2,-1 0.5,-1.2 1.1,-1.2 h 18.5 c 0.6,0 1.1,0.5 1.1,1.2 3.4,16.4 10,44.6 12.9,57.1 0.3,0.8 0.9,1 1.7,1 1.1,0 1.4,-0.2 1.6,-1 a 1082,1082 0 0 0 14,-57.1 c 0.2,-1 0.6,-1.2 1.2,-1.2 h 11 c 0.6,0 1,0.6 1,1.3 a 1330,1330 0 0 1 -19,67.3 c -0.3,0.7 -0.6,1 -1.5,1 m 70.5,-30.9 c 0,-0.6 -0.4,-0.9 -1,-0.9 h -12 c -11.3,0 -14.2,2.4 -14.2,12.9 0,10.2 2.3,11.4 15.6,11.4 a 59.8,59.8 0 0 0 10.2,-0.7 c 1.3,-0.2 1.3,-0.5 1.3,-0.9 z m -31.3,-29 c -1,0.2 -1.9,0.2 -2,-0.5 l -1,-6.5 c -0.2,-0.7 0,-1.5 0.8,-1.8 a 78.3,78.3 0 0 1 20.7,-2.3 c 16.6,0 25.2,5.8 25.2,21.1 v 47 c 0,0.8 -0.4,1.3 -1.8,2 a 84.4,84.4 0 0 1 -21.1,2.1 c -23.2,0 -29.9,-4.6 -29.9,-18.7 0,-12.6 3,-19.3 22.8,-21.6 l 16.9,-2 c 0.4,-0.2 0.8,-0.2 0.8,-0.9 v -6.4 c 0,-10 -4.4,-12.5 -15.8,-12.5 -4.8,0 -11.3,0.6 -15.6,1.1 m 66.9,-8.2 a 100.2,100.2 0 0 1 33.4,-2.2 c 0.7,0.1 0.9,0.5 0.9,1.2 l -0.6,8.1 c 0,0.6 -0.4,0.8 -1,0.7 -3.4,-0.7 -7,-1 -11.3,-1 -2.4,0 -7,0.3 -9.1,1.4 -0.8,0.4 -0.9,1 -0.9,1.6 v 57 c 0,1 -0.6,1.5 -1.6,1.2 h -9.9 c -0.9,0 -1.3,-0.4 -1.3,-1.1 v -65.7 c 0,-0.7 0.5,-1.2 1.3,-1.2 m 40.5,68 c -0.4,0 -0.7,-0.2 -0.7,-0.8 l 0.6,-8.3 c 0,-0.4 0.4,-0.7 1,-0.6 a 81,81 0 0 0 14.5,1.4 c 11.5,0 13.4,-1.2 13.4,-9.4 0,-4.8 -2.8,-7.4 -13.7,-15 -11,-7.7 -15.2,-11 -15.2,-19.3 0,-13.5 6.1,-18.8 23.7,-18.8 6.3,0 11.6,0.4 15.3,1 0.4,0 0.7,0.3 0.7,1 l -0.5,8.2 c 0,0.5 -0.5,0.7 -1.1,0.6 -3.5,-0.6 -8.5,-1.2 -13,-1.2 -9.8,0 -13.2,0.6 -13.2,8 0,5.5 3,7.5 14,14.5 11.5,7.4 15.2,12.5 15.2,20.3 0,15.4 -7,19.8 -23.5,19.8 a 109,109 0 0 1 -17.5,-1.2"
     id="path1067"
     style="fill:#ffffff;fill-opacity:1" />
  <path
     fill="#b1361e"
     d="m 455.8,202.9 2,-2 a 17.8,17.8 0 0 1 -7.1,-25.3 21,21 0 0 1 -14.3,-25 22.5,22.5 0 0 1 -28,-19.7 25.6,25.6 0 0 1 -32.8,-9.8 30.4,30.4 0 0 1 -42,7.5 25.3,25.3 0 0 1 -28,17 23.3,23.3 0 0 1 -19.7,22.9 21,21 0 0 1 -13,28 l 1.5,2.8 c 4,7.1 2.4,15.8 -3.6,20.6 h -0.4 a 15.4,15.4 0 0 1 3.6,24.5 9.5,9.5 0 0 1 4,5.9 30.4,30.4 0 0 1 15.8,0 9.5,9.5 0 0 1 8.6,-8 15.4,15.4 0 0 1 18.6,-19.7 c -0.8,-3.5 0,-7 2.4,-10.3 5.5,-7.9 15.4,-10.6 23.3,-5 a 21,21 0 0 1 35.6,-10.4 23.3,23.3 0 0 1 40.7,2.8 25.3,25.3 0 0 1 32.8,3.2 M 294.9,315.5 c -0.4,-1.6 -0.7,-3.6 -0.4,-5.1 a 31.2,31.2 0 0 1 -15.4,0 c 0,2 0,4.7 -1.5,6.7 a 8.8,8.8 0 0 1 -7.2,4.3 15.4,15.4 0 0 1 -18.5,19.8 17,17 0 0 1 -25.7,15.8 c 0,2.4 -1.6,5.1 -2.8,6.7 a 21,21 0 0 1 -33.2,3.2 23.3,23.3 0 0 1 -40.7,-2.8 25.3,25.3 0 0 1 -32.4,-3.2 15.8,15.8 0 0 1 -2.4,2 17,17 0 0 1 8,8 17.1,17.1 0 0 1 -0.5,17.3 21,21 0 0 1 14.3,25 22.5,22.5 0 0 1 27.6,19.7 25.6,25.6 0 0 1 32.8,9.8 30,30 0 0 1 42.3,-7.5 25.3,25.3 0 0 1 27.7,-17 23.3,23.3 0 0 1 20.1,-22.9 21,21 0 0 1 12.7,-28 l -1.6,-2.8 c -3.6,-7.1 -2,-15.8 4,-20.6 -2.8,-1.5 -5.6,-3.5 -6.4,-6.3 a 15.8,15.8 0 0 1 3.2,-18.2 c -1.6,-0.7 -2.8,-2.3 -4,-4"
     id="path1075" />
</svg>
